<?xml version="1.0" standalone="no"?>
<!DOCTYPE svg PUBLIC "-//W3C//DTD SVG 20010904//EN"
 "http://www.w3.org/TR/2001/REC-SVG-20010904/DTD/svg10.dtd">
<svg version="1.0" xmlns="http://www.w3.org/2000/svg"
 width="336.000000pt" height="336.000000pt" viewBox="0 0 336.000000 336.000000"
 preserveAspectRatio="xMidYMid meet">
<metadata>
Created by potrace 1.14, written by Peter Selinger 2001-2017
</metadata>
<g transform="translate(0.000000,336.000000) scale(0.100000,-0.100000)"
fill="#000000" stroke="none">
<path d="M1437 3335 c-106 -15 -223 -46 -375 -100 l-97 -35 -387 0 -388 0 0
-380 0 -380 -34 -68 c-77 -155 -130 -365 -146 -579 -20 -276 31 -561 146 -812
l34 -74 0 -333 0 -334 310 0 310 0 124 -60 c250 -121 461 -171 725 -172 296
-1 526 52 785 182 l100 50 308 0 308 0 0 328 c0 325 0 329 24 378 36 75 96
239 117 322 39 155 52 286 45 472 -8 236 -48 411 -142 623 l-44 100 0 368 0
369 -388 0 -387 0 -80 31 c-276 106 -582 143 -868 104z m538 -193 c592 -127
1030 -564 1165 -1162 34 -149 39 -379 10 -544 -35 -210 -110 -402 -223 -574
-366 -559 -1043 -803 -1692 -611 -115 35 -279 114 -393 191 -135 91 -313 267
-397 393 -194 293 -282 619 -256 948 18 216 69 397 168 588 215 418 627 710
1103 785 120 19 397 11 515 -14z"/>
<path d="M660 2440 c0 -16 7 -20 38 -20 l37 -1 193 -348 193 -349 -66 -100
c-64 -96 -67 -99 -103 -99 -102 0 -165 -100 -115 -183 16 -28 16 -29 -26 -93
-54 -83 -69 -96 -122 -105 -30 -5 -45 -13 -47 -25 -3 -16 11 -17 162 -17 159
0 166 1 166 20 0 17 -7 20 -39 20 -79 0 -89 20 -44 93 25 42 30 45 76 50 90 8
143 98 103 175 -16 31 -16 32 35 112 29 45 55 78 60 73 8 -9 268 -468 276
-489 3 -8 -6 -14 -29 -16 -22 -2 -34 -9 -36 -20 -3 -17 11 -18 188 -18 177 0
191 1 188 17 -2 13 -16 20 -43 23 l-39 5 -197 345 c-109 189 -195 349 -191
355 25 44 152 229 180 264 47 58 116 101 163 101 20 0 56 -9 80 -20 53 -23 65
-14 49 36 -9 26 -11 68 -6 136 l6 98 -36 0 c-91 0 -151 -61 -341 -349 -120
-181 -136 -202 -146 -185 -7 10 -71 125 -143 254 l-131 235 34 3 c25 2 33 8
33 23 0 18 -9 19 -180 19 -173 0 -180 -1 -180 -20z"/>
<path d="M2093 2446 c-70 -18 -131 -59 -149 -101 -12 -28 -14 -136 -14 -620
l0 -585 -35 0 c-28 0 -35 -4 -35 -20 0 -20 7 -20 430 -20 423 0 430 0 430 20
0 16 -7 20 -35 20 l-35 0 -2 222 -3 222 -227 100 c-126 56 -228 106 -227 111
0 6 28 55 62 110 l62 100 61 6 c94 9 149 28 194 66 54 47 73 86 73 153 0 105
-60 172 -188 207 -73 20 -298 26 -362 9z m294 -46 c81 -49 96 -199 31 -293
-21 -29 -85 -67 -115 -67 -12 0 -39 -36 -83 -111 l-65 -110 -3 243 c-3 263 2
304 45 337 36 29 144 29 190 1z m-64 -715 l107 -48 0 -248 0 -249 -140 0 -140
0 0 310 0 310 33 -14 c17 -7 80 -35 140 -61z"/>
</g>
</svg>
