<?xml version="1.0" encoding="UTF-8" standalone="no"?>
<!DOCTYPE svg PUBLIC "-//W3C//DTD SVG 1.1//EN" "http://www.w3.org/Graphics/SVG/1.1/DTD/svg11.dtd"
[
<!ATTLIST g
  xmlns:vectornator CDATA #FIXED "http://vectornator.io"
  vectornator:layerName CDATA #IMPLIED >
<!ATTLIST g
  xmlns:vectornator CDATA #FIXED "http://vectornator.io"
  vectornator:mask CDATA #IMPLIED >
<!ATTLIST text
  xmlns:vectornator CDATA #FIXED "http://vectornator.io"
  vectornator:width CDATA #IMPLIED >

<!ATTLIST path
  xmlns:vectornator CDATA #FIXED "http://vectornator.io"
  vectornator:blendMode CDATA #IMPLIED >
<!ATTLIST path
  xmlns:vectornator CDATA #FIXED "http://vectornator.io"
  vectornator:shadowColor CDATA #IMPLIED >
<!ATTLIST path
  xmlns:vectornator CDATA #FIXED "http://vectornator.io"
  vectornator:shadowOpacity CDATA #IMPLIED >
<!ATTLIST path
  xmlns:vectornator CDATA #FIXED "http://vectornator.io"
  vectornator:shadowRadius CDATA #IMPLIED >
<!ATTLIST path
  xmlns:vectornator CDATA #FIXED "http://vectornator.io"
  vectornator:shadowOffset CDATA #IMPLIED >
<!ATTLIST path
  xmlns:vectornator CDATA #FIXED "http://vectornator.io"
  vectornator:shadowAngle CDATA #IMPLIED >

<!ATTLIST image
  xmlns:vectornator CDATA #FIXED "http://vectornator.io"
  vectornator:blendMode CDATA #IMPLIED >
<!ATTLIST image
  xmlns:vectornator CDATA #FIXED "http://vectornator.io"
  vectornator:shadowColor CDATA #IMPLIED >
<!ATTLIST image
  xmlns:vectornator CDATA #FIXED "http://vectornator.io"
  vectornator:shadowOpacity CDATA #IMPLIED >
<!ATTLIST image
  xmlns:vectornator CDATA #FIXED "http://vectornator.io"
  vectornator:shadowRadius CDATA #IMPLIED >
<!ATTLIST image
  xmlns:vectornator CDATA #FIXED "http://vectornator.io"
  vectornator:shadowOffset CDATA #IMPLIED >
<!ATTLIST image
  xmlns:vectornator CDATA #FIXED "http://vectornator.io"
  vectornator:shadowAngle CDATA #IMPLIED >

<!ATTLIST g
  xmlns:vectornator CDATA #FIXED "http://vectornator.io"
  vectornator:blendMode CDATA #IMPLIED >
<!ATTLIST g
  xmlns:vectornator CDATA #FIXED "http://vectornator.io"
  vectornator:shadowColor CDATA #IMPLIED >
<!ATTLIST g
  xmlns:vectornator CDATA #FIXED "http://vectornator.io"
  vectornator:shadowOpacity CDATA #IMPLIED >
<!ATTLIST g
  xmlns:vectornator CDATA #FIXED "http://vectornator.io"
  vectornator:shadowRadius CDATA #IMPLIED >
<!ATTLIST g
  xmlns:vectornator CDATA #FIXED "http://vectornator.io"
  vectornator:shadowOffset CDATA #IMPLIED >
<!ATTLIST g
  xmlns:vectornator CDATA #FIXED "http://vectornator.io"
  vectornator:shadowAngle CDATA #IMPLIED >

<!ENTITY % SVG.filter.extra.content  "| feDropShadow" >
<!ELEMENT feDropShadow EMPTY>
<!ATTLIST feDropShadow
  xmlns:svg CDATA #FIXED "http://www.w3.org/Graphics/SVG/1.1/DTD/svg11.dtd"
  dx CDATA #IMPLIED>
<!ATTLIST feDropShadow
  xmlns:svg CDATA #FIXED "http://www.w3.org/Graphics/SVG/1.1/DTD/svg11.dtd"
  dy CDATA #IMPLIED>
<!ATTLIST feDropShadow
  xmlns:svg CDATA #FIXED "http://www.w3.org/Graphics/SVG/1.1/DTD/svg11.dtd"
  stdDeviation CDATA #IMPLIED>
<!ATTLIST feDropShadow
  xmlns:svg CDATA #FIXED "http://www.w3.org/Graphics/SVG/1.1/DTD/svg11.dtd"
  flood-opacity CDATA #IMPLIED>
<!ATTLIST feDropShadow
  xmlns:svg CDATA #FIXED "http://www.w3.org/Graphics/SVG/1.1/DTD/svg11.dtd"
  in CDATA #IMPLIED>
<!ATTLIST feDropShadow
  xmlns:svg CDATA #FIXED "http://www.w3.org/Graphics/SVG/1.1/DTD/svg11.dtd"
  result CDATA #IMPLIED>
<!ATTLIST feDropShadow
  xmlns:svg CDATA #FIXED "http://www.w3.org/Graphics/SVG/1.1/DTD/svg11.dtd"
  flood-color CDATA #IMPLIED>
]
>
<!-- Created with Vectornator (http://vectornator.io/) -->
<svg height="100%" stroke-miterlimit="10" style="fill-rule:nonzero;clip-rule:evenodd;stroke-linecap:round;stroke-linejoin:round;" version="1.1" viewBox="0 0 512 512" width="100%" xml:space="preserve" xmlns="http://www.w3.org/2000/svg" xmlns:vectornator="http://vectornator.io" xmlns:xlink="http://www.w3.org/1999/xlink">
<defs>
<radialGradient cx="257.431" cy="255.194" gradientTransform="matrix(1 0 0 1 0 0)" gradientUnits="userSpaceOnUse" id="RadialGradient" r="232.68">
<stop offset="0" stop-color="#ffffff"/>
<stop offset="0.990613" stop-color="#f9ffb1"/>
</radialGradient>
<filter color-interpolation-filters="sRGB" filterUnits="userSpaceOnUse" height="521.344" id="Filter" width="526.326" x="-5.73199" y="-5.47747">
<feGaussianBlur in="SourceGraphic" result="Blur" stdDeviation="12.193"/>
</filter>
<clipPath id="TextBounds">
<rect height="375.648" width="465.988" x="31.1064" y="84.7375"/>
</clipPath>
<clipPath id="TextBounds_2">
<rect height="81" width="905.66" x="-190.673" y="330.995"/>
</clipPath>
</defs>
<clipPath id="ArtboardFrame">
<rect height="512" width="512" x="0" y="0"/>
</clipPath>
<g clip-path="url(#ArtboardFrame)" id="Слой-1" vectornator:layerName="Слой 1">
<path d="M490.112 252.723L490.112 257.666C490.112 383.431 386.041 485.384 257.664 485.384L257.198 485.384C128.821 485.384 24.7505 383.431 24.7505 257.666L24.7505 252.723C24.7505 126.958 128.821 25.005 257.198 25.005L257.664 25.005C386.041 25.005 490.112 126.958 490.112 252.723Z" fill="url(#RadialGradient)" fill-rule="evenodd" filter="url(#Filter)" opacity="1" stroke="none"/>
<g fill="#e34234" opacity="1" stroke="#c42600" stroke-linecap="round" stroke-linejoin="round" stroke-width="2">
<path clip-path="url(#TextBounds)" d="M272.605 163.376C269.446 153.899 269.446 147.581 271.633 135.674C271.633 135.188 271.876 134.702 272.119 133.973C272.362 133.487 272.605 132.758 272.605 132.029C273.334 127.412 268.474 127.898 263.857 128.627C258.754 128.87 252.679 133.973 246.604 141.263C240.529 148.553 234.454 157.787 229.351 166.292L205.294 205.172L167.629 133.487L177.349 133.487L177.349 128.627L129.721 128.627L129.721 133.487L139.441 133.487L190.228 229.958L172.732 257.903C172.003 257.66 171.274 257.66 170.545 257.417C169.816 257.174 168.844 257.174 168.115 257.174C158.395 257.174 150.862 264.95 150.862 274.427C150.862 279.044 152.563 282.932 155.722 286.091L144.301 304.559C140.656 310.148 133.366 310.877 128.263 310.877L128.263 315.737L171.031 315.737L171.031 310.877C164.47 310.877 159.124 310.634 157.423 308.933C155.722 307.718 155.236 305.045 156.937 302.129L163.498 290.951C164.227 291.194 164.956 291.194 165.685 291.194L168.115 291.194C177.592 291.194 184.882 283.904 184.882 274.427C184.882 269.81 183.424 265.922 180.508 262.763L194.845 239.192L232.996 310.877L223.276 310.877L223.276 315.737L271.39 315.737L271.39 310.877L261.67 310.877L209.668 214.406L228.622 184.274C233.482 176.498 238.342 170.909 243.202 167.507C248.062 164.348 251.95 162.647 254.623 162.647C258.754 162.647 261.67 163.619 263.857 164.591C266.044 165.806 268.231 167.021 271.876 167.993C272.605 167.993 273.091 167.507 273.334 166.778C273.577 166.049 273.334 164.834 272.605 163.376Z" fill-rule="evenodd"/>
<path clip-path="url(#TextBounds)" d="M295.69 310.877L285.97 310.877L285.97 315.737L398.479 315.737L398.479 310.877L388.759 310.877L388.759 249.398L328.495 220.967L345.505 191.078C361.3 191.078 372.235 187.433 379.039 181.844C385.843 176.255 388.759 168.479 388.759 160.703C388.759 146.852 381.955 138.833 371.506 134.216C361.057 129.599 347.206 128.627 332.869 128.627C322.906 128.627 313.672 130.328 306.868 134.216C300.064 138.104 295.69 143.936 295.69 152.684L295.69 310.877ZM364.702 160.703C364.702 166.292 362.515 172.61 358.627 177.713C354.739 182.816 349.15 186.461 342.103 186.461L323.635 218.78L323.635 155.843C323.635 145.88 326.065 140.048 329.467 136.889C332.869 133.973 336.757 133.487 340.402 133.487C347.935 133.487 354.01 134.702 358.141 138.59C362.272 142.478 364.702 149.282 364.702 160.703ZM323.635 310.877L323.635 224.369L360.814 241.865L360.814 310.877L323.635 310.877Z" fill-rule="evenodd"/>
</g>
<g fill="#e34234" opacity="0.814314" stroke="#e34235" stroke-linecap="round" stroke-linejoin="round" stroke-width="2">
<path clip-path="url(#TextBounds_2)" d="M182.699 382.145C181.616 376.901 180.647 369.833 180.248 361.112C180.191 360.599 180.02 360.086 179.393 360.086C178.994 360.029 178.196 359.972 177.341 359.972L175.403 359.972C174.89 359.972 174.662 360.713 174.662 361.112C174.662 362.138 174.662 362.879 174.719 363.392C174.776 363.905 174.776 364.532 174.776 365.33C173.465 367.61 172.325 369.605 171.299 371.258C170.216 372.968 169.304 374.564 168.449 376.046C167.822 377.129 167.081 378.725 166.568 380.321C166.397 380.834 166.226 381.803 166.226 382.544C166.226 384.083 167.081 384.881 168.734 384.881C169.703 384.881 170.558 384.311 171.242 383.399C171.926 382.715 172.553 381.974 173.294 381.005C174.035 380.093 174.89 378.896 176.03 377.072C176.258 378.497 176.429 379.58 176.6 380.435C176.828 382.145 177.056 383.114 177.512 384.197C177.74 384.71 178.025 384.995 178.424 384.995L181.73 384.995C183.383 384.995 183.155 384.14 182.699 382.145ZM175.745 375.191C174.434 377.471 173.009 379.637 172.097 380.378C171.413 381.005 170.9 381.176 169.931 381.176C169.361 381.176 169.076 380.72 169.076 379.751C169.076 378.44 169.418 377.528 169.931 376.217C170.33 375.248 171.185 373.481 172.154 371.657L173.636 368.921C174.092 368.009 174.491 367.211 174.89 366.47L175.403 371.258C175.574 372.911 175.688 374.222 175.745 375.191Z" fill-rule="evenodd"/>
<path clip-path="url(#TextBounds_2)" d="M183.953 349.94C184.124 349.94 184.238 349.769 184.238 349.484C184.238 349.142 184.124 348.971 183.953 348.971C183.896 348.971 183.782 348.914 183.668 348.857C183.497 348.8 183.326 348.8 183.155 348.8C182.699 348.857 182.528 348.344 182.471 347.945C182.414 347.717 182.414 347.432 182.414 347.033L182.414 343.613C182.414 343.214 182.357 342.929 181.958 342.758C181.445 342.701 180.818 342.701 179.963 342.701L178.025 342.701C177.797 342.701 177.626 343.043 177.626 343.271C177.626 343.556 177.626 343.898 177.683 344.297C177.683 345.095 177.74 345.95 177.74 346.691C177.74 347.375 177.74 347.831 177.626 348.287C177.569 348.572 177.398 348.686 177.17 348.686C174.89 348.686 172.04 348.629 169.304 348.515C166.568 348.401 164.003 348.23 162.179 347.774C161.552 347.603 161.267 348.572 162.122 349.199C162.293 349.37 162.35 349.541 162.293 349.826C162.236 350.111 162.179 350.339 162.179 350.567C162.179 351.365 162.236 352.049 162.293 352.562C162.35 353.075 162.35 353.531 162.293 353.816C162.293 354.101 162.464 354.272 162.749 354.272C163.718 354.443 165.827 354.5 166.682 354.329C166.853 354.272 166.967 354.101 166.967 353.873C166.91 353.303 166.853 352.676 166.853 351.992C166.853 351.308 166.91 350.738 166.967 350.339C166.967 350.054 167.081 349.94 167.366 349.94C169.646 349.997 172.781 350.054 175.916 350.054C178.937 350.054 181.958 349.997 183.953 349.94Z" fill-rule="evenodd"/>
<path clip-path="url(#TextBounds_2)" d="M203.276 381.575L188 381.575L188 384.482L203.276 384.482L203.276 381.575Z" fill-rule="evenodd"/>
<path clip-path="url(#TextBounds_2)" d="M217.355 385.565L218.78 383.741C218.096 383.228 217.241 382.658 216.215 381.917C216.671 381.062 217.184 380.321 217.583 379.751C217.982 379.295 218.267 378.725 218.495 378.326L216.443 377.129C216.044 377.984 215.246 379.067 214.277 380.435C213.764 380.15 213.308 379.808 212.852 379.466C212.396 379.181 211.997 378.896 211.712 378.668L210.287 380.492C210.572 380.777 211.028 381.062 211.541 381.404C211.997 381.746 212.51 382.088 212.966 382.487C211.313 384.995 211.028 385.508 210.629 386.078C210.116 385.793 209.66 385.451 209.261 385.109C208.862 384.767 208.463 384.482 208.121 384.368L206.525 386.135C206.867 386.363 207.266 386.648 207.779 386.933C208.349 387.389 208.862 387.674 209.318 388.016C208.862 388.814 208.406 389.441 208.064 390.125L207.152 391.55L209.375 392.747C209.717 391.892 210.401 390.809 211.313 389.441C212.282 390.182 212.966 390.638 213.707 391.037L215.189 389.27L212.567 387.56C212.966 386.876 213.251 386.249 214.961 383.912L217.355 385.565Z" fill-rule="evenodd"/>
<path clip-path="url(#TextBounds_2)" d="M259.877 383.741C259.82 383.684 259.649 383.627 259.364 383.57C257.027 383.513 254.747 383.399 252.581 383.342L246.425 383.171C246.197 376.274 245.114 370.004 243.746 365.558C243.062 363.335 242.321 361.625 241.523 360.371C239.927 357.92 238.901 358.319 237.818 360.371C236.678 362.423 235.709 366.47 235.025 372.512C234.683 375.533 234.512 379.067 234.455 383.114L221.573 383.399C221.174 383.399 221.117 383.912 221.117 384.368C221.117 384.767 221.231 385.166 221.516 385.166C221.459 385.166 221.459 385.223 221.459 385.28L221.345 395.312C221.174 395.996 221.744 396.224 222.2 396.224L224.024 396.224C224.594 396.224 225.278 396.224 226.019 396.281C226.703 396.281 227.045 395.54 227.045 394.856L226.874 392.291C226.817 390.809 226.76 389.384 226.646 387.902C226.589 387.161 226.475 386.363 226.418 385.451C226.418 385.394 226.418 385.28 226.361 385.166C226.304 385.052 226.304 384.995 226.361 384.995L230.237 384.824C231.662 384.824 233.258 384.767 235.025 384.71C235.424 385.736 235.823 386.705 236.108 387.56C236.735 389.327 237.305 390.923 238.046 392.633C238.445 393.488 238.901 394.457 239.471 395.426C239.585 395.597 239.813 395.711 240.212 395.711C240.611 395.711 240.839 395.597 241.01 395.426C242.378 393.317 243.461 391.721 244.259 390.125C245.057 388.529 245.627 386.933 246.14 384.824C248.933 384.824 251.84 384.995 254.405 385.166C254.519 385.223 254.576 385.337 254.576 385.394C254.519 385.451 254.576 385.508 254.633 385.565C254.804 386.363 254.918 387.104 255.089 387.731C255.317 389.099 255.545 390.182 255.773 391.436C255.887 392.063 256.001 392.804 256.172 393.545C256.229 394.4 257.198 394.229 257.255 393.545L258.11 389.327C258.395 387.959 258.851 386.534 259.478 384.995C259.535 384.824 259.592 384.71 259.706 384.539C259.877 384.254 259.991 383.969 259.877 383.741ZM243.575 383.57C241.466 384.083 239.186 383.969 236.621 383.285C236.45 383.285 236.393 383.228 236.336 383.171C236.336 380.549 236.678 377.3 237.191 374.735C237.419 373.424 237.704 372.341 238.103 371.486C238.502 370.631 238.901 370.232 239.414 370.232C240.554 370.232 241.694 372.227 242.606 374.849C243.461 377.471 244.088 380.777 244.088 383.285C243.86 383.456 243.689 383.513 243.575 383.57Z" fill-rule="evenodd"/>
<path clip-path="url(#TextBounds_2)" d="M291.341 384.995C291.398 384.539 291.341 383.342 290.885 383.285C290.372 383.228 289.802 383.228 289.175 383.342C287.921 383.57 287.009 383.399 286.097 383.342C285.641 383.285 285.413 383.057 285.413 382.658C285.014 376.559 284.9 369.662 285.527 360.941C285.527 360.542 285.47 360.143 285.071 360.143C284.843 360.143 284.501 360.143 284.102 360.086C283.247 360.086 282.335 360.143 281.48 360.143C281.081 360.2 280.739 360.2 280.454 360.257C280.226 360.314 280.226 360.656 280.226 360.941C280.226 365.216 280.112 369.206 279.941 372.797C279.713 376.445 279.656 379.694 279.77 382.544C279.941 383 279.371 383.285 278.915 383.285L271.163 383.285C270.65 383.285 270.479 382.715 270.308 382.259C269.624 375.932 269.396 369.662 270.023 361.283C270.194 360.827 270.08 360.143 269.453 360.143C268.997 360.143 268.085 360.2 267.173 360.257C266.261 360.314 265.406 360.428 264.95 360.485C264.494 360.656 264.38 360.941 264.323 361.397C264.038 369.548 264.038 376.787 264.551 384.14C264.551 384.539 264.608 384.881 265.007 384.881L285.698 384.881C286.268 384.881 286.553 385.052 286.553 385.451C286.61 387.731 286.553 389.384 286.382 391.094C286.211 392.804 286.097 394.514 286.097 396.623C286.097 398.447 286.268 400.499 286.496 402.266C286.724 404.033 286.952 405.458 287.123 405.971C287.408 406.313 287.579 406.313 287.693 405.971C287.864 403.634 288.092 401.81 288.377 400.1C288.662 398.39 289.118 396.737 289.745 394.286C290.201 392.519 290.543 391.151 290.771 389.726C290.999 388.301 291.17 386.876 291.341 384.995Z" fill-rule="evenodd"/>
<path clip-path="url(#TextBounds_2)" d="M316.136 350.567C316.307 350.567 316.421 350.396 316.421 350.111C316.421 349.769 316.307 349.598 316.136 349.598C316.079 349.598 315.965 349.541 315.851 349.484C315.737 349.427 315.566 349.427 315.395 349.427C314.939 349.484 314.825 349.028 314.654 348.629C314.597 348.401 314.597 348.116 314.597 347.717L314.597 344.297C314.597 343.898 314.483 343.499 314.198 343.442C313.685 343.385 313.001 343.385 312.146 343.385L310.265 343.385C309.98 343.385 309.809 343.556 309.809 343.955C309.809 344.525 309.866 345.266 309.923 346.178C309.98 347.09 309.98 347.774 309.923 348.23C309.923 348.743 309.809 349.313 309.41 349.313C307.13 349.313 304.28 349.256 301.544 349.142C298.808 349.028 296.243 348.857 294.419 348.401C293.792 348.23 293.507 349.256 294.362 349.883C294.533 349.997 294.59 350.168 294.533 350.453C294.476 350.738 294.419 351.023 294.419 351.251C294.419 351.992 294.476 352.676 294.533 353.189C294.59 353.702 294.59 354.158 294.533 354.5C294.533 354.785 294.647 354.899 294.932 354.899C296.015 355.07 298.124 355.184 298.865 354.956C299.093 354.899 299.207 354.728 299.207 354.557C299.15 353.987 299.093 353.36 299.093 352.676C299.093 351.935 299.15 351.422 299.207 351.023C299.207 350.738 299.321 350.567 299.549 350.567C301.829 350.624 305.021 350.681 308.042 350.681C311.177 350.681 314.141 350.624 316.136 350.567ZM315.509 384.425C315.224 381.86 314.996 379.637 314.825 377.357C314.597 375.134 314.54 372.797 314.54 369.89C314.54 368.066 314.654 366.698 314.768 365.273C314.882 363.905 314.996 362.537 315.053 360.77C315.053 360.485 314.996 360.086 314.597 360.086C313.856 360.086 313.115 360.086 312.431 360.029C311.747 360.029 310.892 360.143 309.923 360.314C309.638 360.314 309.41 360.599 309.41 360.827C309.239 363.734 309.182 366.527 309.125 369.434C307.073 369.206 305.135 368.636 303.368 366.869C301.601 365.045 301.373 363.107 301.202 360.827C301.202 360.542 301.088 360.371 300.917 360.314C299.378 360.314 298.181 360.371 296.642 360.599C296.186 360.599 295.73 361.055 295.958 361.454C296.87 364.418 297.896 365.786 300.347 367.61C303.083 369.719 306.161 370.517 309.068 370.574C309.011 375.305 309.068 379.979 309.239 384.539C309.239 384.71 309.41 384.995 309.581 384.995L314.939 384.995C315.338 384.995 315.509 384.653 315.509 384.425Z" fill-rule="evenodd"/>
<path clip-path="url(#TextBounds_2)" d="M358.772 383.741C358.715 383.684 358.544 383.627 358.259 383.57C355.922 383.513 353.642 383.399 351.476 383.342L345.32 383.171C345.092 376.274 344.009 370.004 342.641 365.558C341.957 363.335 341.216 361.625 340.418 360.371C338.822 357.92 337.796 358.319 336.713 360.371C335.573 362.423 334.604 366.47 333.92 372.512C333.578 375.533 333.407 379.067 333.35 383.114L320.468 383.399C320.069 383.399 320.012 383.912 320.012 384.368C320.012 384.767 320.126 385.166 320.411 385.166C320.354 385.166 320.354 385.223 320.354 385.28L320.24 395.312C320.069 395.996 320.639 396.224 321.095 396.224L322.919 396.224C323.489 396.224 324.173 396.224 324.914 396.281C325.598 396.281 325.94 395.54 325.94 394.856L325.769 392.291C325.712 390.809 325.655 389.384 325.541 387.902C325.484 387.161 325.37 386.363 325.313 385.451C325.313 385.394 325.313 385.28 325.256 385.166C325.199 385.052 325.199 384.995 325.256 384.995L329.132 384.824C330.557 384.824 332.153 384.767 333.92 384.71C334.319 385.736 334.718 386.705 335.003 387.56C335.63 389.327 336.2 390.923 336.941 392.633C337.34 393.488 337.796 394.457 338.366 395.426C338.48 395.597 338.708 395.711 339.107 395.711C339.506 395.711 339.734 395.597 339.905 395.426C341.273 393.317 342.356 391.721 343.154 390.125C343.952 388.529 344.522 386.933 345.035 384.824C347.828 384.824 350.735 384.995 353.3 385.166C353.414 385.223 353.471 385.337 353.471 385.394C353.414 385.451 353.471 385.508 353.528 385.565C353.699 386.363 353.813 387.104 353.984 387.731C354.212 389.099 354.44 390.182 354.668 391.436C354.782 392.063 354.896 392.804 355.067 393.545C355.124 394.4 356.093 394.229 356.15 393.545L357.005 389.327C357.29 387.959 357.746 386.534 358.373 384.995C358.43 384.824 358.487 384.71 358.601 384.539C358.772 384.254 358.886 383.969 358.772 383.741ZM342.47 383.57C340.361 384.083 338.081 383.969 335.516 383.285C335.345 383.285 335.288 383.228 335.231 383.171C335.231 380.549 335.573 377.3 336.086 374.735C336.314 373.424 336.599 372.341 336.998 371.486C337.397 370.631 337.796 370.232 338.309 370.232C339.449 370.232 340.589 372.227 341.501 374.849C342.356 377.471 342.983 380.777 342.983 383.285C342.755 383.456 342.584 383.513 342.47 383.57Z" fill-rule="evenodd"/>
</g>
</g>
</svg>
